<svg xmlns="http://www.w3.org/2000/svg" version="1.0" viewBox="0 0 500.000000 500.000000" preserveAspectRatio="xMidYMid meet">

    <g transform="translate(0.000000,500.000000) scale(0.100000,-0.100000)" stroke="none">
        <path d="M1920 4642 c-724 -1504 -1015 -2118 -1037 -2182 -38 -110 -43 -274 -14 -390 58 -229 192 -398 395 -495 319 -153 688 -326 690 -323 8 11 1137 2371 1172 2448 23 52 75 165 116 250 l75 156 -491 336 c-270 185 -550 377 -622 427 l-132 90 -152 -317z"/>
        <path d="M2879 2772 c-256 -502 -1349 -2686 -1345 -2689 3 -3 1758 226 1773 232 16 6 773 1519 806 1612 84 232 34 516 -124 711 -89 111 -146 147 -539 345 l-369 186 -202 -397z"/>
    </g>
</svg>